<svg width="325" height="44" viewBox="0 0 325 44" fill="none" xmlns="http://www.w3.org/2000/svg">
<path d="M43.4886 35H35.8182L44.4602 8.81818H54.1761L62.8182 35H55.1477L49.4205 16.0284H49.2159L43.4886 35ZM42.0568 24.6705H56.4773V29.9886H42.0568V24.6705ZM87.9933 8.81818V35H82.0614L72.6012 21.2443H72.4478V35H65.3398V8.81818H71.3739L80.6808 22.5227H80.8853V8.81818H87.9933ZM90.6396 14.5455V8.81818H113.395V14.5455H105.52V35H98.5146V14.5455H90.6396ZM123.178 8.81818V35H116.07V8.81818H123.178ZM136.672 25.2841H142.195L144.189 27.7898L147.564 31.625L151.962 36.9432H145.672L142.553 33.3125L140.456 30.2955L136.672 25.2841ZM151.911 21.9091C151.911 24.8239 151.344 27.2827 150.21 29.2855C149.077 31.2798 147.547 32.7926 145.621 33.8239C143.695 34.8466 141.547 35.358 139.178 35.358C136.791 35.358 134.635 34.8423 132.709 33.8111C130.791 32.7713 129.266 31.2543 128.132 29.2599C127.007 27.2571 126.445 24.8068 126.445 21.9091C126.445 18.9943 127.007 16.5398 128.132 14.5455C129.266 12.5426 130.791 11.0298 132.709 10.0071C134.635 8.97585 136.791 8.46023 139.178 8.46023C141.547 8.46023 143.695 8.97585 145.621 10.0071C147.547 11.0298 149.077 12.5426 150.21 14.5455C151.344 16.5398 151.911 18.9943 151.911 21.9091ZM144.598 21.9091C144.598 20.3409 144.389 19.0199 143.972 17.946C143.562 16.8636 142.953 16.0455 142.143 15.4915C141.342 14.929 140.354 14.6477 139.178 14.6477C138.001 14.6477 137.009 14.929 136.199 15.4915C135.398 16.0455 134.788 16.8636 134.371 17.946C133.962 19.0199 133.757 20.3409 133.757 21.9091C133.757 23.4773 133.962 24.8026 134.371 25.8849C134.788 26.9588 135.398 27.777 136.199 28.3395C137.009 28.8935 138.001 29.1705 139.178 29.1705C140.354 29.1705 141.342 28.8935 142.143 28.3395C142.953 27.777 143.562 26.9588 143.972 25.8849C144.389 24.8026 144.598 23.4773 144.598 21.9091ZM170.729 8.81818H177.837V25.5909C177.837 27.5852 177.359 29.3111 176.405 30.7685C175.459 32.2173 174.138 33.3381 172.442 34.1307C170.746 34.9148 168.777 35.3068 166.536 35.3068C164.277 35.3068 162.3 34.9148 160.604 34.1307C158.908 33.3381 157.587 32.2173 156.641 30.7685C155.703 29.3111 155.234 27.5852 155.234 25.5909V8.81818H162.342V24.9773C162.342 25.7869 162.521 26.5114 162.879 27.1506C163.237 27.7812 163.732 28.2756 164.362 28.6335C165.001 28.9915 165.726 29.1705 166.536 29.1705C167.354 29.1705 168.078 28.9915 168.709 28.6335C169.339 28.2756 169.834 27.7812 170.192 27.1506C170.55 26.5114 170.729 25.7869 170.729 24.9773V8.81818ZM181.215 35V8.81818H200.084V14.5455H188.323V19.0455H199.113V24.7727H188.323V29.2727H200.033V35H181.215ZM217.723 17C217.655 16.1477 217.335 15.483 216.764 15.0057C216.202 14.5284 215.345 14.2898 214.195 14.2898C213.462 14.2898 212.861 14.3793 212.392 14.5582C211.932 14.7287 211.591 14.9631 211.369 15.2614C211.148 15.5597 211.033 15.9006 211.024 16.2841C211.007 16.5994 211.063 16.8849 211.19 17.1406C211.327 17.3878 211.54 17.6136 211.83 17.8182C212.119 18.0142 212.49 18.1932 212.942 18.3551C213.393 18.517 213.93 18.6619 214.553 18.7898L216.7 19.25C218.149 19.5568 219.389 19.9616 220.42 20.4645C221.452 20.9673 222.295 21.5597 222.952 22.2415C223.608 22.9148 224.089 23.6733 224.396 24.517C224.712 25.3608 224.874 26.2812 224.882 27.2784C224.874 29 224.443 30.4574 223.591 31.6506C222.739 32.8438 221.52 33.7514 219.935 34.3736C218.358 34.9957 216.462 35.3068 214.246 35.3068C211.97 35.3068 209.984 34.9702 208.288 34.2969C206.601 33.6236 205.288 32.5881 204.351 31.1903C203.422 29.7841 202.953 27.9858 202.945 25.7955H209.695C209.737 26.5966 209.938 27.2699 210.295 27.8153C210.653 28.3608 211.156 28.7741 211.804 29.0554C212.46 29.3366 213.24 29.4773 214.143 29.4773C214.902 29.4773 215.537 29.3835 216.048 29.196C216.56 29.0085 216.947 28.7486 217.212 28.4162C217.476 28.0838 217.612 27.7045 217.621 27.2784C217.612 26.8778 217.48 26.5284 217.224 26.2301C216.977 25.9233 216.568 25.6506 215.997 25.4119C215.426 25.1648 214.655 24.9347 213.683 24.7216L211.075 24.1591C208.757 23.6562 206.929 22.8168 205.591 21.6406C204.261 20.456 203.601 18.8409 203.609 16.7955C203.601 15.1335 204.044 13.6804 204.939 12.4361C205.842 11.1832 207.091 10.2074 208.685 9.50852C210.287 8.80966 212.124 8.46023 214.195 8.46023C216.308 8.46023 218.136 8.81392 219.679 9.52131C221.222 10.2287 222.411 11.2259 223.246 12.5128C224.089 13.7912 224.516 15.2869 224.524 17H217.723ZM226.87 14.5455V8.81818H249.626V14.5455H241.751V35H234.745V14.5455H226.87ZM276.434 21.9091C276.434 24.8239 275.867 27.2827 274.734 29.2855C273.6 31.2798 272.07 32.7926 270.144 33.8239C268.218 34.8466 266.07 35.358 263.701 35.358C261.315 35.358 259.158 34.8423 257.232 33.8111C255.315 32.7713 253.789 31.2543 252.656 29.2599C251.531 27.2571 250.968 24.8068 250.968 21.9091C250.968 18.9943 251.531 16.5398 252.656 14.5455C253.789 12.5426 255.315 11.0298 257.232 10.0071C259.158 8.97585 261.315 8.46023 263.701 8.46023C266.07 8.46023 268.218 8.97585 270.144 10.0071C272.07 11.0298 273.6 12.5426 274.734 14.5455C275.867 16.5398 276.434 18.9943 276.434 21.9091ZM269.121 21.9091C269.121 20.3409 268.913 19.0199 268.495 17.946C268.086 16.8636 267.477 16.0455 266.667 15.4915C265.866 14.929 264.877 14.6477 263.701 14.6477C262.525 14.6477 261.532 14.929 260.722 15.4915C259.921 16.0455 259.312 16.8636 258.894 17.946C258.485 19.0199 258.281 20.3409 258.281 21.9091C258.281 23.4773 258.485 24.8026 258.894 25.8849C259.312 26.9588 259.921 27.777 260.722 28.3395C261.532 28.8935 262.525 29.1705 263.701 29.1705C264.877 29.1705 265.866 28.8935 266.667 28.3395C267.477 27.777 268.086 26.9588 268.495 25.8849C268.913 24.8026 269.121 23.4773 269.121 21.9091ZM279.723 35V8.81818H291.024C292.967 8.81818 294.667 9.17187 296.125 9.87926C297.582 10.5866 298.716 11.6051 299.525 12.9347C300.335 14.2642 300.74 15.858 300.74 17.7159C300.74 19.5909 300.322 21.1719 299.487 22.4588C298.66 23.7457 297.497 24.7173 295.997 25.3736C294.505 26.0298 292.762 26.358 290.768 26.358H284.018V20.8352H289.336C290.172 20.8352 290.883 20.733 291.471 20.5284C292.068 20.3153 292.524 19.9787 292.839 19.5185C293.163 19.0582 293.325 18.4574 293.325 17.7159C293.325 16.9659 293.163 16.3565 292.839 15.8878C292.524 15.4105 292.068 15.0611 291.471 14.8395C290.883 14.6094 290.172 14.4943 289.336 14.4943H286.831V35H279.723ZM295.064 22.983L301.609 35H293.887L287.495 22.983H295.064ZM303.77 35V8.81818H322.639V14.5455H310.877V19.0455H321.667V24.7727H310.877V29.2727H322.588V35H303.77Z" fill="#8F723A"/>
<path d="M0.305863 13.1835C0.235967 13.2246 0.174674 13.2795 0.12601 13.3456C-0.0393208 13.5638 -0.0422804 13.8675 0.119021 14.0887L1.56566 16.0586C1.74659 16.3028 2.07618 16.3741 2.33832 16.2254L3.32145 15.6637L4.40945 31.0553L3.85565 31.055C3.52122 31.0539 3.24969 31.3307 3.25104 31.6721V34.1307C3.25211 34.4701 3.5231 34.7442 3.85565 34.7429H15.8981V37.4224C15.1946 37.6751 14.6798 38.3543 14.6798 39.1536C14.6798 40.1648 15.4981 41 16.4888 41C17.4795 41 18.2942 40.1647 18.2942 39.1536C18.2942 38.3631 17.7934 37.6888 17.1028 37.4298V34.7432H29.1439C29.477 34.7451 29.7482 34.471 29.7496 34.131V31.6724C29.7507 31.3306 29.4786 31.0534 29.1439 31.0553L28.5885 31.0551L29.6775 15.6649L30.655 16.2255C30.9195 16.3778 31.254 16.3054 31.4349 16.0562L32.878 14.0921C33.0979 13.7952 33.0111 13.3685 32.6933 13.1858L16.7954 4.08968C16.5718 3.96318 16.4199 3.9769 16.2051 4.09077L0.305863 13.1835ZM16.499 5.33211L31.5036 13.9133L30.786 14.8894L16.8083 6.88489C16.6263 6.78035 16.4042 6.77952 16.2214 6.8827L2.21201 14.8921L1.49688 13.9136L16.499 5.33211ZM16.5154 8.12325L28.5173 14.9997L27.3812 31.055H5.61757L4.48145 15.0011L16.5154 8.12325ZM16.4977 11.3622C12.086 11.3622 8.49984 15.0262 8.49984 19.529C8.49984 24.0318 12.0861 27.6971 16.4977 27.6971C20.9092 27.6971 24.4989 24.0317 24.4989 19.529C24.4989 15.0261 20.9091 11.3622 16.4977 11.3622V11.3622ZM15.8979 12.6228V13.9986H17.1023V12.6228C20.3799 12.9166 22.9779 15.5712 23.2642 18.9169H21.9211V20.1473H23.2642C22.9761 23.4909 20.3783 26.1432 17.1023 26.4368V25.0609H15.8979V26.4368C12.62 26.1451 10.0198 23.4925 9.73129 20.1473H11.0781V18.9169H9.73129C10.0176 15.5696 12.618 12.9145 15.8979 12.6228V12.6228ZM15.8979 15.6864V17.929C15.2669 18.1785 14.8124 18.8019 14.8124 19.5293C14.8124 19.8295 14.8962 20.1097 15.0312 20.3563L13.6303 22.0526L14.55 22.8462L15.9509 21.1474C16.1234 21.2088 16.3057 21.2494 16.4977 21.2494C17.4217 21.2494 18.1865 20.4724 18.1865 19.5293C18.1865 18.8035 17.7319 18.1806 17.102 17.9303V15.6866L15.8979 15.6864ZM7.46443 28.5954V29.8247H8.66882V28.5954H7.46443ZM24.3245 28.5954V29.8247H25.5299V28.5954H24.3245ZM4.45484 32.2844H28.5439V33.5137H4.45484V32.2844ZM16.4884 38.5415C16.8282 38.5415 17.0881 38.8071 17.0881 39.1537C17.0881 39.5005 16.8279 39.7708 16.4884 39.7708C16.1486 39.7708 15.8838 39.5005 15.8838 39.1537C15.8838 38.8071 16.1486 38.5415 16.4884 38.5415V38.5415Z" fill="#201C1C"/>
</svg>
